# xmcd
#
# Track frame offsets:
#	150
#	15026
#	30240
#	46665
#	61481
#	83691
#	96293
#	111243
#	125863
#	140998
#	153424
#	167132
#	181095
#	195554
#	210409
#
# Disc length: 3002 seconds
#
# Revision: 0
# Processed by: cddbd v1.5.1PL0 Copyright (c) Steve Scherf et al.
# Submitted via: dBpowerAMP V4.0
#
DISCID=be0bb80f
DTITLE=Glenn Miller - 30 Exitos de Oro CD2
DYEAR=2002
DGENRE=Pop
TTITLE0=Pennsylvania 6-5000
TTITLE1=Start Dust
TTITLE2=I Dreamt I Dewelt In Harlem
TTITLE3=Indian Summer
TTITLE4=Anvil Chores
TTITLE5=Polka Dats And Moonbeams
TTITLE6=American Patrol
TTITLE7=My Prayer
TTITLE8=Ciribiribin
TTITLE9=Serenade In Blue
TTITLE10=Rhapsody In Blue
TTITLE11=Elmer's Tune
TTITLE12=Don't Sit Under The Apple Tree
TTITLE13=Moonlight Cocktail
TTITLE14=Tchaikovsky Piano Concert
EXTD=
EXTT0=
EXTT1=
EXTT2=
EXTT3=
EXTT4=
EXTT5=
EXTT6=
EXTT7=
EXTT8=
EXTT9=
EXTT10=
EXTT11=
EXTT12=
EXTT13=
EXTT14=
PLAYORDER=
